<?xml version="1.0" encoding="utf-8"?>
<svg viewBox="164.408 155.703 151.02 151.15" xmlns="http://www.w3.org/2000/svg">
  <polygon fill="#9AA7B0" points="261.576 263.667 218.39 296.057 218.39 274.464 186.001 274.464 186.001 252.871 218.39 252.871 218.39 231.278" fill-rule="evenodd" style="stroke-width: 2.184; vector-effect: non-scaling-stroke;"/>
  <polygon fill="#40B6E0" fill-opacity=".7" points="207.594 306.853 207.594 285.26 175.204 285.26 175.204 242.074 207.594 242.074 207.594 155.703 164.408 155.703 164.408 306.853" fill-rule="evenodd" style="stroke-width: 2.184; vector-effect: non-scaling-stroke;"/>
  <g transform="matrix(0.644513, 0, 0, 0.644513, 127.096916, 53.482372)" style="">
    <path style="fill: rgb(118, 210, 117);" d="M 185.039 158.78 L 220.762 194.502 L 185.039 230.225 L 149.317 194.502 L 185.039 158.78 Z"/>
    <path style="fill: rgb(67, 160, 71);" d="M 149.317 194.502 L 149.317 230.225 L 185.039 265.948 L 185.039 230.225 L 149.317 194.502 Z"/>
    <path style="fill: rgb(118, 210, 117);" d="M 256.484 158.78 L 292.207 194.502 L 256.484 230.225 L 220.762 194.502 L 256.484 158.78 Z"/>
    <path style="fill: rgb(67, 160, 71);" d="M 292.207 194.502 L 292.207 230.225 L 256.484 265.948 L 256.484 230.225 L 292.207 194.502 Z"/>
    <path style="fill: rgb(67, 160, 71);" d="M 220.762 194.502 L 256.484 230.225 L 220.762 265.948 L 185.039 230.225 L 220.762 194.502 Z"/>
    <path style="fill: rgb(0, 112, 26);" d="M 220.762 265.948 L 220.762 301.67 L 185.039 265.948 L 185.039 230.225 L 220.762 265.948 Z"/>
    <path style="fill: rgb(0, 67, 0);" d="M 220.762 265.948 L 256.484 230.225 L 256.484 265.948 L 220.762 301.67 L 220.762 265.948 Z"/>
  </g>
</svg>